<svg xmlns="http://www.w3.org/2000/svg" width="256" height="256" fill="none"><rect width="256" height="256" fill="#F4F2ED" rx="60"/><path fill="#FEFEFE" fill-rule="evenodd" d="m203.819 68.8354-63.14-37.4802c-7.536-4.4736-16.825-4.4736-24.361 0L53.1774 68.8354C45.6434 73.3091 41 81.575 41 90.5223v74.9607c0 8.945 4.6434 17.215 12.1796 21.689l63.1404 37.473c3.768 2.238 7.97 3.354 12.179 3.354 4.207 0 8.41-1.116 12.178-3.354l63.14-37.473c7.536-4.474 12.182-12.744 12.182-21.689V90.5223c0-8.9473-4.646-17.2132-12.18-21.6869Z" clip-rule="evenodd"/><path fill="#3E474A" fill-rule="evenodd" d="m118.527 220.808-63.1404-37.474c-6.1758-3.666-10.0122-10.506-10.0122-17.852V90.5234c0-7.3466 3.8365-14.186 10.01-17.8504l63.1426-37.4802c3.027-1.797 6.475-2.7473 9.972-2.7473 3.495 0 6.943.9503 9.973 2.7473l63.14 37.4802c5.204 3.0889 8.714 8.4379 9.701 14.4373-2.094-4.4692-6.817-5.6841-12.32-2.4694l-59.734 36.8961c-7.448 4.354-12.94 9.24-12.945 18.221v73.604c-.004 5.378 2.168 8.861 5.504 9.871-1.096.19-2.201.322-3.319.322-3.497 0-6.945-.95-9.972-2.747Zm85.292-151.9737-63.14-37.478c-3.768-2.2379-7.975-3.3558-12.18-3.3558-4.206 0-8.413 1.1179-12.181 3.3558l-63.1406 37.478C45.6434 73.308 41 81.5761 41 90.5234v74.9586c0 8.945 4.6434 17.215 12.1796 21.689l63.1404 37.475c3.77 2.236 7.973 3.354 12.179 3.354 4.207 0 8.41-1.118 12.178-3.354l63.142-37.475c7.536-4.474 12.18-12.744 12.18-21.689V90.5234c0-8.9473-4.644-17.2154-12.18-21.6891Z" clip-rule="evenodd"/><path fill="#47B353" fill-rule="evenodd" d="m187.267 172.729-15.722 9.41c-.417.243-.723.516-.726 1.017v4.114c0 .503.338.712.754.467l15.966-9.703c.416-.243.48-.708.483-1.209v-3.629c0-.5-.338-.71-.755-.467Z" clip-rule="evenodd"/><path fill="#FEFEFE" fill-rule="evenodd" d="M153.788 138.098c.509-.258.928.059.935.725l.053 5.439c2.277-.906 4.255-1.148 6.047-.734.389.104.561.633.402 1.261l-1.197 4.82c-.093.364-.298.732-.545.961-.104.102-.21.181-.315.234-.161.082-.32.108-.472.077-.818-.185-2.763-.61-5.823.94-3.21 1.625-4.333 4.414-4.311 6.484.027 2.472 1.295 3.221 5.673 3.296 5.834.097 8.355 2.646 8.416 8.522.06 5.77-3.02 11.966-7.732 15.763l.104 5.384c.006.648-.415 1.391-.924 1.649l-3.189 1.837c-.511.258-.93-.06-.937-.708l-.055-5.296c-2.731 1.135-5.499 1.409-7.267.699-.333-.13-.476-.622-.344-1.182l1.156-4.868c.092-.384.295-.768.571-1.012.097-.095.198-.168.299-.219.183-.092.362-.112.514-.055 1.905.642 4.342.342 6.685-.844 2.977-1.506 4.968-4.542 4.937-7.558-.029-2.737-1.51-3.874-5.113-3.901-4.586.013-8.861-.891-8.932-7.642-.057-5.558 2.833-11.342 7.408-14.999l-.057-5.435c-.007-.668.401-1.403.926-1.667l3.087-1.971Z" clip-rule="evenodd"/></svg>