<svg xmlns="http://www.w3.org/2000/svg" width="256" height="256" fill="none" viewBox="0 0 256 256"><rect width="256" height="256" fill="#953CAD" rx="60"/><path fill="#fff" d="M195.436 100.668v13.474h13.474v-13.474h6.737v13.474h13.473v6.737h-13.473v13.473h13.473v6.737h-13.473v13.474h-6.737v-13.474h-13.474v13.474h-6.737v-13.474h-13.473v-6.737h13.473v-13.473h-13.473v-6.737h13.473v-13.474h6.737Zm13.474 20.211h-13.474v13.473h13.474v-13.473Z"/><path fill="#fff" d="M122.001 33c35.143 0 65.827 19.0863 82.261 47.4561l-.16-.2731-41.349 23.808c-8.146-13.7933-23.081-23.1018-40.213-23.2935l-.539-.003c-26.126 0-47.3065 21.1795-47.3065 47.3045 0 8.544 2.2778 16.553 6.239 23.47 8.1541 14.235 23.4825 23.837 41.0675 23.837 17.692 0 33.108-9.724 41.221-24.111l-.197.345 41.286 23.918c-16.254 28.13-46.517 47.157-81.252 47.536l-1.058.006c-35.255 0-66.0257-19.204-82.419-47.724C31.5791 161.353 27 145.212 27 127.999 27 75.5334 69.5323 33 122.001 33Z"/></svg>