<svg xmlns="http://www.w3.org/2000/svg" width="256" height="256" fill="none"><rect width="256" height="256" fill="#0277BD" rx="60"/><path fill="#EBEBEB" d="m53.7527 102.651 2.8628 31.942h71.4805v-31.942H53.7527ZM128.095 38H48l2.9036 31.9423h77.1914V38ZM128.095 218.841v-33.233l-.14.037-35.5737-9.605-2.2741-25.476H58.0425l4.475 50.154 65.4305 18.164.147-.041Z"/><path fill="#fff" d="m167.318 134.593-3.708 41.426-35.625 9.616v33.231l65.483-18.148.48-5.397 7.506-84.092.779-8.578L208 38h-80.015v31.9423h45.009l-2.906 32.7087h-42.103v31.942h39.333Z"/></svg>