<svg xmlns="http://www.w3.org/2000/svg" width="256" height="256" fill="none"><rect width="256" height="256" fill="#2396ED" rx="60"/><path fill="#fff" d="M141.187 122.123h20.717v-18.744h-20.717v18.744Zm-24.662 0h20.716v-18.744h-20.716v18.744Zm-24.1696 0h20.7166v-18.744H92.3554v18.744Zm-24.1695 0h20.2234v-18.744H68.1859v18.744Zm-24.6626 0h20.7166v-18.744H43.5233v18.744Zm24.6626-22.6897h20.2234V80.6896H68.1859v18.7437Zm24.1695 0h20.7166V80.6896H92.3554v18.7437Zm24.1696 0h20.716V80.6896h-20.716v18.7437Zm0-22.6897h20.716V58h-20.716v18.7436ZM228 113.738s-8.879-8.386-27.129-5.426c-1.973-14.3045-17.264-22.6898-17.264-22.6898s-14.304 17.2638-3.946 36.5008c-2.959 1.48-7.892 3.453-15.291 3.453H28.7257c-2.4663 9.372-2.4663 71.521 65.6027 71.521 48.8316 0 85.3326-22.689 102.5966-64.123C222.574 134.948 228 113.738 228 113.738Z"/></svg>