<svg xmlns="http://www.w3.org/2000/svg" width="256" height="256" fill="none" viewBox="0 0 256 256"><rect width="256" height="256" fill="#f4f2ed" rx="60"/><rect width="256" height="256" fill="none" rx="60" style="fill:#fff;fill-opacity:0"/><path fill="#9FEAF9" d="M100.768 70.772c-26.005-4.736-46.567.221-54.762 14.415-6.115 10.592-4.367 24.635 4.24 39.646.1699.312.4004.586.678.808.2775.221.5964.385.9381.482.3417.096.6993.124 1.0517.08.3524-.043.6926-.156 1.0006-.333.3081-.177.5777-.413.7932-.695.2154-.283.3723-.605.4615-.949.0892-.343.1089-.701.0578-1.053-.051-.351-.1717-.689-.3549-.993-7.752-13.522-9.261-25.641-4.247-34.326 6.808-11.791 25.148-16.213 49.187-11.835.691.115 1.399-.0463 1.972-.4491s.964-1.0147 1.09-1.7036c.125-.689-.025-1.3997-.419-1.9786-.394-.5789-1-.9797-1.687-1.1157Zm-36.999 72.307c10.515 11.555 24.176 22.394 39.756 31.388 37.723 21.78 77.883 27.601 97.675 14.106.296-.194.55-.446.748-.74.198-.293.335-.624.404-.971s.068-.705-.003-1.052c-.071-.347-.21-.676-.41-.969-.199-.293-.455-.543-.752-.735-.297-.193-.63-.324-.979-.387-.348-.063-.706-.056-1.051.021-.346.077-.673.222-.962.427-17.714 12.078-55.862 6.548-92.003-14.318-15.114-8.726-28.343-19.222-38.478-30.36-.2353-.261-.5198-.472-.837-.623-.3173-.15-.6611-.236-1.0118-.253-.3507-.018-.7013.035-1.0318.153-.3305.119-.6343.301-.8939.538-.2597.236-.4702.521-.6193.839-.1492.318-.2342.662-.25 1.013-.0158.351.0377.701.1576 1.031.12.33.3038.633.5412.892Z" style="fill:#0fccf0;fill-opacity:1"/><path fill="#9FEAF9" d="M194.886 139.835c17.028-20.116 22.973-40.348 14.795-54.512-6.017-10.423-18.738-15.926-35.645-16.146-.701.001-1.373.2778-1.871.7704s-.783 1.1615-.792 1.8621c-.009.7006.258 1.3767.743 1.882.486.5053 1.151.7993 1.851.8185 15.205.198 26.165 4.939 31.096 13.48 6.792 11.765 1.49 29.807-14.248 48.399-.231.267-.407.576-.517.912-.11.335-.153.688-.126 1.04.027.352.124.694.285 1.008.16.315.382.594.651.822.269.227.581.4.917.506.337.107.691.146 1.042.114.351-.031.693-.131 1.005-.296.313-.164.589-.388.814-.66ZM151.125 71.66c-15.396 3.299-31.784 9.749-47.522 18.835-38.942 22.483-64.345 55.636-60.817 79.675.047.35.163.687.3413.991.1782.305.4152.571.6971.784.2819.212.6032.366.9452.454.342.087.6979.106 1.0471.054.3492-.051.6848-.171.9872-.353.3025-.182.5658-.422.7748-.707.2089-.284.3593-.607.4424-.95.0832-.343.0974-.699.0419-1.048-3.133-21.344 20.947-52.769 58.207-74.281 15.267-8.815 31.135-15.06 45.972-18.239.347-.0684.677-.2053.971-.4026.294-.1973.546-.4512.74-.7467.195-.2955.329-.6269.394-.9747.066-.3478.061-.7052-.013-1.0512-.074-.3461-.216-.6739-.418-.9645-.203-.2905-.46-.5379-.759-.7278-.299-.1898-.632-.3183-.981-.378-.349-.0596-.706-.0493-1.051.0305Z" style="fill:#10c8ef;fill-opacity:1"/><path fill="#9FEAF9" d="M88.036 186.835c8.904 24.86 23.469 40.167 39.847 40.167 11.945 0 22.996-8.143 31.614-22.478.187-.3.311-.635.368-.984.056-.349.042-.705-.041-1.049s-.233-.667-.443-.952c-.209-.285-.472-.526-.775-.708-.303-.182-.64-.302-.989-.353-.35-.051-.707-.032-1.049.056-.342.088-.664.243-.946.456-.282.213-.518.481-.696.786-7.745 12.883-17.258 19.892-27.043 19.892-13.605 0-26.596-13.652-34.825-36.63-.1127-.336-.2914-.647-.5257-.913-.2342-.267-.5193-.484-.8385-.639-.3192-.155-.6661-.245-1.0204-.264-.3543-.019-.7089.033-1.043.152-.3341.12-.6409.305-.9026.544-.2616.24-.4729.53-.6213.852-.1483.322-.2309.671-.2429 1.025-.0119.355.047.709.1734 1.04h-.001Zm81.322-4.863c4.61-14.728 7.085-31.718 7.085-49.423 0-44.1789-15.463-82.2629-37.487-92.0419-.643-.2695-1.367-.2762-2.015-.0186-.648.2575-1.17.7588-1.453 1.3963-.283.6375-.305 1.3606-.061 2.0142.244.6535.734 1.1856 1.365 1.4821 19.643 8.723 34.317 44.866 34.317 87.1679 0 17.177-2.397 33.63-6.84 47.83-.11.336-.153.69-.125 1.043.028.352.125.695.287 1.01.161.314.384.593.654.821.271.227.584.399.921.504.337.106.692.143 1.044.11.352-.032.694-.135 1.006-.301.312-.166.588-.392.811-.666.224-.274.391-.589.492-.928h-.001Zm50.224-2.612c0-7.049-5.714-12.763-12.763-12.763-7.049 0-12.763 5.714-12.763 12.763 0 7.049 5.714 12.763 12.763 12.763 7.049 0 12.763-5.714 12.763-12.763Zm-5.333 0c0 .976-.192 1.942-.566 2.843-.373.902-.92 1.721-1.61 2.411-.69.69-1.509 1.237-2.411 1.611-.901.373-1.867.565-2.843.565s-1.942-.192-2.843-.565c-.902-.374-1.721-.921-2.411-1.611s-1.237-1.509-1.61-2.411c-.374-.901-.566-1.867-.566-2.843 0-1.97.783-3.86 2.176-5.254 1.394-1.393 3.283-2.176 5.254-2.176 1.971 0 3.86.783 5.254 2.176 1.393 1.394 2.176 3.284 2.176 5.254ZM48.763 192.123c7.05 0 12.764-5.714 12.764-12.763 0-7.049-5.715-12.763-12.764-12.763-7.048 0-12.763 5.714-12.763 12.763 0 7.049 5.715 12.763 12.763 12.763Zm0-5.333c-1.9706 0-3.8604-.783-5.2538-2.176-1.3934-1.393-2.1762-3.283-2.1762-5.254 0-1.97.7828-3.86 2.1762-5.254 1.3934-1.393 3.2832-2.176 5.2538-2.176 1.9706 0 3.8604.783 5.2538 2.176 1.3934 1.394 2.1762 3.284 2.1762 5.254 0 1.971-.7828 3.861-2.1762 5.254-1.3934 1.393-3.2832 2.176-5.2538 2.176Z" style="fill:#10ccef;fill-opacity:1"/><path fill="#9FEAF9" d="M127.883 53.526c7.049 0 12.763-5.714 12.763-12.763 0-7.049-5.714-12.763-12.763-12.763-7.049 0-12.763 5.714-12.763 12.763 0 7.049 5.714 12.763 12.763 12.763Zm0-5.333c-1.971 0-3.86-.7828-5.254-2.1762-1.393-1.3934-2.176-3.2832-2.176-5.2538 0-1.9706.783-3.8604 2.176-5.2538 1.394-1.3934 3.283-2.1762 5.254-2.1762 1.971 0 3.86.7828 5.254 2.1762 1.393 1.3934 2.176 3.2832 2.176 5.2538 0 1.9706-.783 3.8604-2.176 5.2538-1.394 1.3934-3.283 2.1762-5.254 2.1762Zm1.949 93.382c-4.985 1.077-9.896-2.091-10.975-7.076-.517-2.394-.062-4.895 1.265-6.953 1.327-2.058 3.417-3.505 5.811-4.023 4.985-1.077 9.896 2.091 10.976 7.076 1.077 4.985-2.091 9.897-7.077 10.976Z" style="fill:#10ccef;fill-opacity:1"/></svg>