<svg xmlns="http://www.w3.org/2000/svg" width="256" height="256" fill="none" viewBox="0 0 256 256"><path fill="#F4F2ED" d="M196 0H60C26.8629 0 0 26.8629 0 60v136c0 33.137 26.8629 60 60 60h136c33.137 0 60-26.863 60-60V60c0-33.1371-26.863-60-60-60Z"/><path fill="#050505" d="M182.139 125.57c12.73.847 24.122-7.847 26.619-20.345-3.073-4.754-8.325-7.6133-13.979-7.6133-14.697-.3364-22.583 17.1483-12.634 27.9643l-.006-.006Zm-59.364-70.1863 34.666-20.079-11.048-6.2294L98.582 56.768l3.81 2.1218 7.239 4.0688 13.144-7.6073v.0324Zm39.11-21.9291c.576.1747 1.042.6469 1.216 1.2162L179.17 83.788c.304.8474-.033 1.7595-.809 2.2252-12.73 7.4779-18.863 22.5698-14.988 36.8268 4.244 15.467 18.999 25.571 34.938 23.954.873-.072 1.714.472 1.986 1.313l16.579 50.475c.265.848-.071 1.753-.809 2.226L165.23 231.67c-.24.136-.544.233-.848.233-.44.103-.905 0-1.313-.265l-17.886-11.625c-.311-.2-.543-.498-.705-.834l-34.906-83.421-53.1662 31.535c-.1035.071-.2394.136-.3364.207-.5434.233-1.1838.162-1.6883-.136l-12.0254-7.07c-.8798-.472-1.2162-1.585-.7439-2.465L93.0577 55.9529c.1617-.3687.4981-.6727.8733-.8474l51.485-29.8144c.569-.3364 1.274-.3687 1.889-.0324l14.58 8.1959Zm-53.833 32.9907-12.4973-7.0445-49.7641 98.5122 9.0303 5.324 42.8943-58.316c.4076-.575 1.0803-.879 1.7531-.776.6727.071 1.2417.498 1.5197 1.145l46.757 111.884 12.504 8.092-52.158-158.8207h-.039Zm86.72 68.2907c-14.593 0-24.497-14.827-18.908-28.307 5.563-13.4748 23.048-16.9421 33.353-6.6309 3.849 3.8359 6.003 9.0309 6.003 14.4579.032 11.314-9.134 20.48-20.448 20.48Z"/></svg>