<svg xmlns="http://www.w3.org/2000/svg" width="256" height="256" fill="none" viewBox="0 0 256 256"><rect width="256" height="256" fill="#F03C2E" rx="60"/><g clip-path="url(#a)"><path fill="#fff" d="m224.225 119.094-87.319-87.319c-1.195-1.1963-2.615-2.1452-4.177-2.7926-1.563-.6475-3.238-.9807-4.929-.9807-1.691 0-3.366.3332-4.929.9807-1.562.6474-2.982 1.5963-4.177 2.7926L100.569 49.9l23 23c5.35-1.875 11.475-.5938 15.737 3.6687 2.029 2.0327 3.446 4.5951 4.088 7.3945.642 2.7994.484 5.723-.457 8.4368l22.169 22.169c5.363-1.85 11.55-.657 15.831 3.637 1.424 1.424 2.553 3.114 3.323 4.974.77 1.86 1.166 3.853 1.166 5.866-.001 2.013-.397 4.006-1.168 5.866-.771 1.859-1.9 3.549-3.324 4.972-1.423 1.424-3.113 2.552-4.973 3.322-1.86.771-3.853 1.167-5.866 1.166-2.013 0-4.007-.397-5.866-1.167-1.86-.771-3.55-1.9-4.973-3.324-4.5-4.5-5.612-11.125-3.337-16.669l-20.675-20.675v54.407c1.501.742 2.872 1.722 4.062 2.9 1.423 1.423 2.552 3.112 3.323 4.972.77 1.859 1.166 3.852 1.166 5.865 0 2.013-.396 4.006-1.166 5.865-.771 1.86-1.9 3.55-3.323 4.973s-3.113 2.552-4.972 3.322c-1.86.77-3.853 1.167-5.865 1.167-2.013 0-4.006-.397-5.865-1.167-1.86-.77-3.55-1.899-4.973-3.322-1.425-1.423-2.555-3.112-3.326-4.971-.772-1.86-1.169-3.854-1.169-5.867s.397-4.006 1.169-5.866c.771-1.86 1.901-3.549 3.326-4.971 1.481-1.475 3.125-2.594 5.019-3.344v-54.913c-1.825-.75-3.538-1.8558-5.019-3.3433-2.152-2.1494-3.615-4.8911-4.203-7.8753-.587-2.9843-.273-6.076.903-8.8809l-22.6873-22.675-59.875 59.8125c-1.1971 1.196-2.1468 2.616-2.7948 4.179-.648 1.563-.9815 3.238-.9815 4.93 0 1.692.3335 3.368.9815 4.931.648 1.563 1.5977 2.983 2.7948 4.179l87.3253 87.312c1.195 1.196 2.615 2.145 4.177 2.793 1.563.647 3.238.98 4.929.98 1.691 0 3.366-.333 4.929-.98 1.562-.648 2.982-1.597 4.177-2.793l86.919-86.781c1.197-1.196 2.147-2.616 2.795-4.179.648-1.563.981-3.238.981-4.93 0-1.692-.333-3.368-.981-4.931-.648-1.563-1.598-2.983-2.795-4.179"/></g><defs><clipPath id="a"><path fill="#fff" d="M28 28h200v200H28z"/></clipPath></defs></svg>