<svg xmlns="http://www.w3.org/2000/svg" width="256" height="256" fill="none"><rect width="256" height="256" fill="#F4F2ED" rx="60"/><path fill="#161614" d="M128.001 30C72.7791 30 28 74.7708 28 130.001c0 44.183 28.6533 81.667 68.3867 94.89 4.9973.926 6.8323-2.169 6.8323-4.81 0-2.385-.093-10.262-.136-18.618-27.8199 6.049-33.6903-11.799-33.6903-11.799-4.549-11.559-11.1033-14.632-11.1033-14.632-9.0731-6.207.6839-6.079.6839-6.079 10.0418.705 15.3293 10.305 15.3293 10.305 8.9191 15.288 23.3939 10.868 29.1004 8.313.898-6.464 3.489-10.875 6.349-13.372-22.2115-2.529-45.5607-11.104-45.5607-49.421 0-10.918 3.9064-19.839 10.3034-26.8418-1.0383-2.5187-4.4612-12.6897.9688-26.464 0 0 8.3974-2.6877 27.5075 10.2504 7.977-2.2157 16.531-3.3268 25.03-3.3649 8.498.0381 17.06 1.1492 25.051 3.3649 19.087-12.9381 27.473-10.2504 27.473-10.2504 5.443 13.7743 2.019 23.9453.98 26.464 6.412 7.0028 10.292 15.9238 10.292 26.8418 0 38.409-23.394 46.866-45.662 49.341 3.587 3.104 6.783 9.189 6.783 18.519 0 13.38-.116 24.149-.116 27.443 0 2.661 1.8 5.779 6.869 4.797C199.383 211.64 228 174.169 228 130.001 228 74.7708 183.227 30 128.001 30ZM65.4536 172.453c-.2203.497-1.0019.646-1.714.305-.7253-.326-1.1327-1.004-.8975-1.502.2153-.512.9985-.654 1.7222-.311.727.326 1.141 1.01.8893 1.508Zm4.9189 4.389c-.4769.443-1.4092.237-2.0418-.462-.6541-.697-.7767-1.629-.2931-2.078.4918-.442 1.396-.235 2.0517.462.6541.706.7816 1.631.2832 2.078Zm3.3746 5.616c-.6127.426-1.6146.027-2.2339-.863-.6128-.889-.6128-1.955.0132-2.383.621-.427 1.608-.043 2.2356.84.611.904.611 1.971-.0149 2.406Zm5.7071 6.504c-.5481.604-1.7156.442-2.5701-.383-.8743-.806-1.1178-1.95-.568-2.555.5548-.606 1.7289-.435 2.59.383.8677.804 1.1326 1.957.5481 2.555Zm7.3759 2.195c-.2418.784-1.3662 1.14-2.4989.807-1.131-.343-1.8712-1.26-1.6427-2.052.2352-.788 1.3645-1.159 2.5055-.803 1.1294.341 1.8712 1.252 1.6361 2.048Zm8.3941.932c.0281.824-.9323 1.508-2.1213 1.523-1.1956.027-2.1627-.641-2.176-1.452 0-.833.939-1.51 2.1346-1.53 1.189-.023 2.1627.639 2.1627 1.459Zm8.2458-.316c.143.804-.683 1.631-1.864 1.851-1.161.212-2.2358-.285-2.3831-1.083-.1441-.825.6971-1.651 1.8561-1.865 1.183-.205 2.241.279 2.391 1.097Z"/></svg>