<svg xmlns="http://www.w3.org/2000/svg" width="256" height="256" fill="none" viewBox="0 0 256 256"><rect width="256" height="256" fill="#F4F2ED" rx="60"/><path fill="#fff" d="M222.017 163.681s-.312-1.889-.495-1.872l-34.75 3.307c-2.765.263-4.912 2.438-5.106 5.17l-.955 13.495-26.884 1.892-1.829-12.231c-.407-2.72-2.816-4.77-5.604-4.77h-36.676c-2.787 0-5.196 2.05-5.603 4.77l-1.83 12.231-26.8837-1.892-.9547-13.495c-.194-2.733-2.3415-4.908-5.1065-5.171l-34.7671-3.306c-.1796-.017-.3112 1.874-.4908 1.874l-.047 7.416 29.4444 4.683.9643 13.615c.195 2.756 2.45 4.985 5.2467 5.183l37.0254 2.605c.14.009.278.015.417.015 2.782 0 5.187-2.052 5.594-4.772l1.881-12.584h26.897l1.881 12.584c.407 2.719 2.814 4.771 5.601 4.771.136 0 .272-.005.406-.014l37.03-2.605c2.795-.198 5.051-2.427 5.246-5.183l.964-13.615 29.432-4.704-.048-7.397Z"/><path fill="#478CBF" d="M34.0818 107.758v55.923c.1038.001.2075.005.3103.014l34.7632 3.306c1.821.173 3.2481 1.618 3.3749 3.418l1.0718 15.134 30.324 2.134 2.089-13.968c.271-1.811 1.846-3.153 3.704-3.153h36.676c1.856 0 3.432 1.342 3.702 3.153l2.089 13.968 30.325-2.134 1.071-15.134c.128-1.8 1.554-3.244 3.375-3.418l34.75-3.306c.103-.009.206-.013.309-.014v-4.462l.015-.005v-51.456h.128c4.606-5.797 8.867-11.9053 12.954-18.4219-5.428-9.1119-12.078-17.2549-19.186-24.7993-6.592 3.2726-12.995 6.9799-19.043 10.9249-3.026-2.9666-6.435-5.3933-9.783-7.9299-3.289-2.6057-6.996-4.5161-10.512-6.742 1.046-7.6884 1.564-15.2573 1.772-23.1569-9.072-4.5029-18.746-7.4884-28.532-9.6329-3.907 6.476-7.479 13.4889-10.591 20.3447-3.69-.6081-7.397-.8335-11.109-.8771v-.0057c-.026 0-.05.0057-.072.0057-.023 0-.047-.0057-.07-.0057v.0057c-3.719.0436-7.423.269-11.114.8771-3.11-6.8558-6.681-13.8687-10.594-20.3447-9.7806 2.1445-19.4558 5.13-28.527 9.6329.2075 7.8996.7251 15.4685 1.7749 23.1569-3.5228 2.2259-7.2253 4.1363-10.5156 6.742-3.3433 2.5366-6.7575 4.9633-9.7848 7.9299-6.0477-3.945-12.4489-7.6523-19.0431-10.9249C33.0753 72.0812 26.4292 80.2242 21 89.3361c4.0847 6.5166 8.3489 12.6249 12.9531 18.4219h.1287Z"/><path fill="#478CBF" d="m190.83 174.05-1.077 15.215c-.129 1.834-1.609 3.293-3.468 3.425l-37.029 2.606c-.09.006-.18.009-.27.009-1.84 0-3.427-1.332-3.699-3.154l-2.124-14.202H112.95l-2.124 14.202c-.285 1.911-2.018 3.286-3.969 3.145l-37.0292-2.606c-1.8594-.132-3.3384-1.591-3.4681-3.425l-1.0766-15.215-31.2587-2.972c.0144 3.313.0577 6.943.0577 7.666 0 32.558 41.8789 48.208 93.9109 48.388h.127c52.032-.18 93.896-15.83 93.896-48.388 0-.736.046-4.351.061-7.666l-31.247 2.972Z"/><path fill="#fff" d="M99.7266 130.459c0 11.415-9.3785 20.663-20.9496 20.663-11.5653 0-20.9467-9.248-20.9467-20.663 0-11.408 9.3814-20.651 20.9467-20.651 11.5711 0 20.9496 9.243 20.9496 20.651Z"/><path fill="#414042" d="M94.6858 131.684c0 7.572-6.2226 13.709-13.9059 13.709-7.6795 0-13.9059-6.137-13.9059-13.709s6.2264-13.714 13.9059-13.714c7.6833 0 13.9059 6.142 13.9059 13.714Z"/><path fill="#fff" d="M128.055 153.001c-3.725 0-6.743-2.707-6.743-6.044v-19.02c0-3.334 3.018-6.044 6.743-6.044 3.724 0 6.749 2.71 6.749 6.044v19.02c0 3.337-3.025 6.044-6.749 6.044ZM156.386 130.459c0 11.415 9.379 20.663 20.952 20.663 11.564 0 20.945-9.248 20.945-20.663 0-11.408-9.381-20.651-20.945-20.651-11.573 0-20.952 9.243-20.952 20.651Z"/><path fill="#414042" d="M161.428 131.684c0 7.572 6.221 13.709 13.899 13.709 7.685 0 13.906-6.137 13.906-13.709s-6.221-13.714-13.906-13.714c-7.678 0-13.899 6.142-13.899 13.714Z"/></svg>