<svg xmlns="http://www.w3.org/2000/svg" width="256" height="256" fill="none" viewBox="0 0 256 256"><rect width="256" height="256" fill="#E14E1D" rx="60"/><path fill="#fff" d="m48 38 8.6098 96.593H167.32l-3.715 41.43-35.646 9.638-35.579-9.624-2.3788-26.602H57.9389l4.5847 51.281 65.4274 18.172 65.51-18.172 8.783-98.061H85.8241L82.901 69.9448h122.238L208 38H48Z"/><path fill="#EBEBEB" d="M128 38H48l8.6098 96.593H128v-31.938H85.8241L82.901 69.9448H128V38ZM128 185.647l-.041.014-35.579-9.624-2.3788-26.602H57.9388l4.5848 51.281 65.4274 18.172.049-.014v-33.227Z"/></svg>