<svg xmlns="http://www.w3.org/2000/svg" width="256" height="256" fill="none" viewBox="0 0 256 256"><rect width="256" height="256" fill="#99424F" rx="60"/><path fill="#fff" d="M213.353 126.495c0-12.045-8.28-22.178-19.397-25.073L218.854 28H95.461l24.957 73.654c-10.771 3.127-18.703 13.086-18.703 24.898 0 8.686 4.342 16.387 10.943 21.135-2.605 3.706-5.616 7.123-9.033 10.365-6.4269 6.022-13.549 10.654-21.2503 13.723-6.9484-4.69-9.9594-12.97-7.2379-20.382 10.5964-3.242 18.2976-13.144 18.2976-24.783 0-14.302-11.6387-25.883-25.883-25.883-14.3023 0-25.941 11.639-25.941 25.941 0 7.064 2.8952 13.55 7.5275 18.182-.4053.811-.8106 1.621-1.216 2.49-3.8795 7.991-8.2802 17.024-9.9594 27.157-3.3585 20.266 2.1424 36.537 15.4024 45.744 7.4696 5.153 15.692 7.759 24.5512 7.759 15.2288 0 30.6889-7.643 45.6279-15.055 10.655-5.269 21.656-10.77 32.484-13.434 3.996-.984 8.165-1.563 12.566-2.2 8.917-1.274 18.124-2.606 26.404-7.412 9.67-5.616 16.271-14.997 18.182-25.767 1.447-8.28 0-16.618-3.706-23.914 2.49-3.996 3.879-8.686 3.879-13.723Zm-11.291 0c0 8.048-6.543 14.591-14.592 14.591-8.048 0-14.591-6.543-14.591-14.591 0-2.606.694-5.096 1.91-7.238.464-.811 1.043-1.622 1.622-2.317.579-.694 1.274-1.331 2.026-1.91l.058-.058c.463-.348.985-.695 1.506-1.043 0 0 .058 0 .058-.058.231-.115.463-.289.694-.405.058 0 .116-.058.174-.058.232-.116.521-.231.811-.347.289-.116.579-.232.81-.348.058 0 .116-.058.174-.058.232-.057.463-.173.695-.231.058 0 .174-.058.232-.058.289-.058.521-.116.81-.174h.058l.869-.173c.058 0 .173 0 .231-.058.232 0 .464-.058.695-.058h.29c.289 0 .579-.058.926-.058h.753c.232 0 .405 0 .637.058h.116c.463.058.926.116 1.389.231 6.601 1.39 11.639 7.296 11.639 14.361Zm-90.446-86.9142h91.083l-20.903 61.6672c-.869.174-1.737.464-2.606.753l-22.003-44.8753-22.062 44.5863c-.868-.29-1.795-.464-2.721-.637l-20.788-61.4942Zm41.401 81.8762c-1.1-5.443-3.879-10.307-7.817-13.897l11.987-24.2039 12.101 24.7249c-3.59 3.59-6.195 8.165-7.238 13.376h-9.033Zm-29.009-9.149c.289-.058.521-.116.81-.174h.174c.232-.058.463-.058.695-.115h.231c.232 0 .406-.058.637-.058h2.259c.231 0 .405.058.579.058.116 0 .173 0 .289.057.232.058.406.058.637.116.058 0 .116 0 .232.058.289.058.579.116.81.174h.058c.232.058.464.116.695.231.058 0 .116.058.232.058.174.058.405.116.579.232.058 0 .116.058.174.058.231.116.463.174.694.289h.058c.29.116.521.232.753.406h.058c.232.116.463.289.695.405.058 0 .058.058.116.058.231.116.405.289.637.405l.057.058c.695.521 1.332 1.1 1.969 1.679l.058.058c.579.637 1.158 1.332 1.621 2.085 1.506 2.316 2.374 5.037 2.374 7.991 0 8.048-6.543 14.591-14.591 14.591-8.049 0-14.592-6.543-14.592-14.591-.058-6.775 4.632-12.508 11.002-14.129Zm-56.9778-.405c8.0487 0 14.5918 6.543 14.5918 14.592 0 8.048-6.5431 14.591-14.5918 14.591-8.0486 0-14.5918-6.543-14.5918-14.591 0-8.049 6.5432-14.592 14.5918-14.592Zm134.6848 50.202c-1.274 7.412-5.849 13.897-12.566 17.777-6.311 3.648-14.07 4.806-22.235 5.964-4.458.637-9.148 1.332-13.665 2.432-12.044 2.953-23.625 8.743-34.858 14.302-14.36 7.122-27.9097 13.839-40.4749 13.839-6.5431 0-12.3914-1.853-17.9502-5.732-12.7388-8.802-12.1019-25.304-10.5964-34.337 1.3897-8.454 5.2693-16.387 8.9751-23.972.2317-.464.4054-.869.637-1.332 1.2739.463 2.6057.81 3.9954 1.042-2.2004 12.276 4.0532 24.957 16.213 31.21l2.2004 1.158 2.374-.868c10.1332-3.59 19.5136-9.439 27.7936-17.256 4.691-4.4 8.686-9.148 12.044-14.302 1.332.232 2.664.29 3.996.29 12.044 0 22.177-8.281 25.072-19.398h9.728c2.895 11.175 13.028 19.398 25.072 19.398 4.806 0 9.265-1.332 13.087-3.59 1.505 4.342 1.968 8.859 1.158 13.375Z"/></svg>