<svg xmlns="http://www.w3.org/2000/svg" width="256" height="256" fill="none"><rect width="256" height="256" fill="#F4F2ED" rx="60"/><path fill="#FF2D20" fill-rule="evenodd" d="M215.846 78.3138c.064.2434.098.4945.098.7467V118.26c0 .503-.131.997-.379 1.432-.249.436-.607.797-1.037 1.047l-32.446 18.942v37.545c0 1.022-.535 1.965-1.409 2.48l-67.728 39.535c-.155.089-.324.146-.493.207-.064.022-.123.061-.19.079-.474.126-.971.126-1.445 0-.077-.022-.148-.065-.222-.093-.155-.057-.317-.107-.465-.193l-67.7136-39.535c-.4302-.251-.7876-.612-1.0363-1.047-.2487-.435-.3798-.93-.3801-1.433V59.6288c0-.2573.0352-.5074.0986-.7503.0212-.0822.0705-.1572.0987-.2394.0528-.15.1022-.3036.1797-.443.0528-.0929.1303-.1679.1938-.2536.081-.1144.155-.2323.2501-.3323.081-.0822.1867-.1429.2784-.2143.1021-.0858.1937-.1787.31-.2466h.0035l33.8586-19.7675c.4287-.2501.9147-.3818 1.4093-.3818.4946 0 .9806.1317 1.4093.3818l33.859 19.7675h.007c.112.0715.208.1608.31.243.091.0714.193.1357.274.2143.099.1036.17.2215.254.3359.06.0857.141.1607.19.2536.081.1429.127.293.184.443.028.0822.077.1572.098.243.065.2434.098.4945.099.7467v73.4502l28.214-16.473V79.0569c0-.2501.035-.5038.099-.7431.025-.0858.07-.1608.099-.243.056-.15.105-.3036.183-.443.053-.0929.13-.1679.19-.2536.085-.1144.155-.2323.254-.3323.081-.0822.183-.1429.275-.2144.105-.0857.197-.1786.31-.2465h.004l33.862-19.7675c.428-.2505.914-.3824 1.409-.3824s.981.1319 1.409.3824l33.859 19.7675c.12.0715.211.1608.317.243.088.0714.19.1357.271.2143.099.1036.169.2215.254.3359.063.0857.141.1607.19.2536.081.1394.127.293.183.443.032.0822.078.1572.099.243ZM210.3 116.606V84.0086l-11.849 6.9167-16.369 9.5567v32.597l28.221-16.473h-.003Zm-33.859 58.966v-32.618l-16.101 9.325-45.979 26.609v32.925l62.08-36.241ZM46.6443 64.5769V175.572l62.0727 36.238v-32.919l-32.428-18.61-.0106-.007-.0141-.007c-.1092-.064-.2008-.157-.303-.236-.0881-.071-.1902-.128-.2677-.207l-.007-.01c-.0916-.09-.1551-.2-.2326-.301-.0705-.096-.155-.178-.2114-.278l-.004-.011c-.0634-.107-.1022-.236-.148-.357-.0458-.107-.1057-.207-.1338-.322v-.004c-.0352-.135-.0423-.278-.0564-.418-.0141-.107-.0423-.214-.0423-.321V81.0505L58.493 71.49l-11.8487-6.9095v-.0036Zm31.0399-21.4145L49.4735 59.6288l28.2037 16.4663 28.2068-16.4699-28.2068-16.4628h.007ZM92.3551 145.926l16.3659-9.553V64.5769l-11.8491 6.9167-16.369 9.5568v71.7966l11.8522-6.921Zm86.9089-83.3319-28.208 16.4664 28.208 16.4663 28.203-16.4699-28.203-16.4628Zm-2.823 37.8879-16.369-9.5567-11.848-6.9167v32.5974l16.365 9.553 11.852 6.92v-32.597Zm-64.905 73.458 41.373-23.952 20.682-11.968-28.186-16.456-32.453 18.946-29.5777 17.267 28.1617 16.163Z" clip-rule="evenodd"/></svg>