<svg xmlns="http://www.w3.org/2000/svg" width="256" height="256" fill="none" viewBox="0 0 256 256"><rect width="256" height="256" fill="#F4F2ED" rx="60"/><g clip-path="url(#a)"><path fill="#00678C" fill-rule="evenodd" d="M203.801 178.21c-9.79-.272-17.385.731-23.75 3.409-1.833.736-4.774.736-5.016 3.043.98.968 1.098 2.552 1.957 3.894 1.467 2.435 4.041 5.715 6.365 7.417l7.834 5.598c4.774 2.917 10.16 4.622 14.811 7.542 2.694 1.704 5.386 3.894 8.08 5.721 1.372.973 2.203 2.558 3.918 3.163v-.368c-.856-1.091-1.103-2.672-1.956-3.894l-3.677-3.526c-3.547-4.744-7.957-8.884-12.731-12.287-3.918-2.677-12.484-6.326-14.076-10.825l-.241-.273c2.689-.272 5.872-1.219 8.445-1.949 4.165-1.091 7.957-.851 12.238-1.945l5.88-1.704v-1.091c-2.204-2.189-3.795-5.11-6.119-7.176-6.242-5.353-13.102-10.586-20.203-14.965-3.794-2.432-8.692-4.017-12.731-6.081-1.473-.731-3.918-1.096-4.774-2.312-2.209-2.672-3.43-6.204-5.021-9.369l-10.037-21.168c-2.203-4.745-3.553-9.49-6.242-13.869-12.611-20.6826-26.324-33.2122-47.38-45.5018-4.5273-2.555-9.9134-3.6539-15.6397-4.99l-9.1807-.4908c-1.9618-.8508-3.9182-3.1631-5.633-4.2593-6.9775-4.3792-24.9741-13.8684-30.1187-1.3634-3.3063 7.9077 4.8977 15.6927 7.6826 19.7093 2.0853 2.7976 4.7742 5.9607 6.2477 9.1238.8231 2.0669 1.0975 4.2592 1.9563 6.4489 1.9563 5.3526 3.7947 11.3161 6.3656 16.3063 1.3719 2.555 2.8124 5.235 4.5273 7.545.9795 1.363 2.6944 1.947 3.0593 4.136-1.7149 2.435-1.8328 6.081-2.8124 9.127-4.4093 13.748-2.6944 30.78 3.5477 40.902 1.9619 3.04 6.5852 9.734 12.8575 7.177 5.5095-2.19 4.2803-9.124 5.8717-15.208.3704-1.458.1235-2.432.8561-3.408v.273l5.0211 10.097c3.7947 5.961 10.4076 12.167 15.9136 16.306 2.936 2.19 5.263 5.964 8.934 7.3v-.368h-.241c-.736-1.091-1.839-1.582-2.818-2.433-2.203-2.189-4.651-4.867-6.366-7.299-5.139-6.812-9.6661-14.357-13.7077-22.142-1.9618-3.771-3.6767-7.908-5.2626-11.679-.7408-1.461-.7408-3.654-1.9618-4.379-1.8384 2.672-4.5273 4.99-5.88 8.273-2.3267 5.23-2.5682 11.679-3.4242 18.371-.4939.122-.2744 0-.4939.272-3.9127-.97-5.2626-4.99-6.7305-8.393-3.6713-8.638-4.2859-22.507-1.1031-32.484.8561-2.555 4.5328-10.585 3.0649-13.018-.7409-2.312-3.1829-3.648-4.5328-5.475-1.5914-2.312-3.3008-5.2301-4.4038-7.7851-2.9359-6.817-4.4038-14.3566-7.5893-21.1708-1.4735-3.1631-4.0416-6.4489-6.1242-9.3665-2.3267-3.2858-4.8922-5.5981-6.7305-9.4893-.6119-1.3634-1.468-3.5284-.4884-4.99.2414-.9734.7353-1.3634 1.7094-1.5815 1.5914-1.3634 6.1241.3654 7.7155 1.0907 4.5273 1.8269 8.3219 3.5285 12.1166 6.0807 1.7149 1.2162 3.5533 3.5285 5.7565 4.1393h2.5737c3.9181.8508 8.3219.2727 11.9904 1.3634 6.4891 2.0724 12.3635 5.11 17.6318 8.3985 16.035 10.0973 29.26 24.4539 38.193 41.6106 1.468 2.798 2.08 5.353 3.43 8.273 2.574 5.964 5.757 12.045 8.322 17.888 2.574 5.718 5.021 11.562 8.693 16.306 1.838 2.555 9.18 3.891 12.484 5.23 2.45 1.091 6.242 2.073 8.451 3.409 4.159 2.555 8.322 5.475 12.237 8.273 1.956 1.456 8.081 4.499 8.445 6.926l.014-.066ZM78.9584 72.4873c-1.6914-.0149-3.3775.1896-5.0157.6081v.2727h.2415c.9795 1.9469 2.6944 3.2857 3.9181 4.99l2.8179 5.8408.2414-.2727c1.7149-1.2162 2.5737-3.1631 2.5737-6.0808-.7353-.8507-.856-1.7042-1.4679-2.555-.7353-1.2161-2.3267-1.8269-3.309-2.7976v-.0055Z" clip-rule="evenodd"/></g><defs><clipPath id="a"><path fill="#fff" d="M38 38h180v180H38z"/></clipPath></defs></svg>