<svg xmlns="http://www.w3.org/2000/svg" width="256" height="256" fill="none" viewBox="0 0 256 256"><rect width="256" height="256" fill="#F4F2ED" rx="60"/><path fill="#E0234E" d="M146.728 18c-1.556 0-3.001.3422-4.335.7985 2.835 1.9394 4.391 4.5061 5.169 7.4151.056.3993.167.6845.222 1.0837.056.3423.112.6845.112 1.0268.222 5.0194-1.279 5.6468-2.335 8.6128-1.612 3.8217-1.167 7.9285.778 11.2367.167.3993.389.8556.667 1.2549-2.112-14.4309 9.616-16.5984 11.784-21.1044.166-3.9357-3.002-6.5595-5.503-8.3848-2.39-1.483-4.558-1.9393-6.559-1.9393Zm17.676 3.2512c-.223 1.3119-.056.9697-.111 1.6542-.056.4563-.056 1.0267-.112 1.483-.111.4563-.222.9126-.389 1.3689-.111.4563-.278.9126-.444 1.3689-.223.4564-.389.8556-.612 1.3119-.166.2283-.278.4563-.444.6845-.111.1711-.223.3422-.334.5134-.278.3993-.556.7985-.834 1.1407-.333.3423-.611.7415-1 1.0268v.0571c-.334.2852-.667.6274-1.056.9126-1.167.9126-2.501 1.5971-3.724 2.4527-.389.2851-.778.5133-1.112.8555-.389.2852-.722.5704-1.056.9127-.389.3422-.667.6844-1 1.0837-.278.3423-.612.7415-.834 1.1408-.278.3993-.556.7985-.778 1.1978-.223.4563-.389.8556-.612 1.3119-.166.4563-.333.8556-.444 1.3119-.167.5133-.278.9697-.389 1.426-.056.2282-.056.5133-.112.7415-.055.2282-.055.4563-.111.6845 0 .4563-.055.9696-.055 1.4259 0 .3423 0 .6845.055 1.0267 0 .4563.056.9126.167 1.426.056.4563.167.9126.278 1.3689.167.4563.278.9127.445 1.369.111.2852.278.5704.389.7985l-12.784-5.0765c-2.168-.6274-4.28-1.1978-6.448-1.7111-1.167-.2852-2.334-.5704-3.502-.8556-3.335-.6845-6.725-1.1978-10.116-1.54-.111 0-.166-.0572-.278-.0572-3.335-.3422-6.614-.5133-9.949-.5133-2.446 0-4.891.114-7.2812.2852-3.3906.2282-6.7811.6844-10.1717 1.2548-.8337.114-1.6675.2852-2.5012.4564-1.7231.3422-3.3906.7415-5.0025 1.1407-.8337.2283-1.6674.4563-2.5012.6845-.8337.3422-1.6119.7415-2.3901 1.0837l-1.8342.8556c-.1111.0571-.2224.0571-.2779.114-.5558.2852-1.0561.5133-1.5563.7986-.1667.0571-.2779.1139-.3891.1711-.6114.2852-1.2228.6274-1.723.9126-.3891.1711-.7782.3993-1.1117.5704-.1667.114-.3891.2282-.5002.2852-.5003.2852-1.0005.5704-1.4452.8556-.5002.2852-.9449.5703-1.334.8555-.3891.2853-.7781.5134-1.1116.7986-.0557.0571-.1111.0571-.1668.114-.3335.2282-.7226.5133-1.0561.7985 0 0-.0556.0571-.111.114-.2779.2283-.5559.4563-.8338.6845-.1111.0571-.2224.1711-.3335.2282-.2779.2283-.5558.5134-.8337.7415-.0557.114-.1668.1712-.2224.2283-.3335.3422-.667.6274-1.0005.9697-.0557 0-.0557.0571-.1111.1139-.3335.2852-.667.6275-1.0005.9697-.0557.0571-.0557.114-.1111.114-.2779.2852-.5558.5704-.8337.9126-.1111.114-.2779.2283-.3891.3422-.2779.3423-.6114.6845-.9449 1.0268-.0557.1139-.1667.1711-.2224.2851-.4447.4564-.8338.9127-1.2784 1.369-.0557.0571-.1111.114-.1668.1711-.8893.9697-1.8342 1.9393-2.8347 2.7949-1.0005.9126-2.0565 1.7682-3.1126 2.5097-1.1117.7986-2.1678 1.483-3.335 2.1675-1.1117.6274-2.2789 1.1978-3.5017 1.7112-1.1673.5133-2.3901.9697-3.6129 1.3689-2.3345.5134-4.7245 1.483-6.7811 1.6541-.4447 0-.9449.114-1.3896.1711-.5002.114-.9449.2283-1.3895.3423-.4447.1711-.8894.3422-1.334.5133-.4447.1712-.8893.3993-1.334.6275-.3891.2852-.8337.5133-1.2228.7985-.3891.2852-.7782.6274-1.1117.9697-.389.2852-.7781.6845-1.1116 1.0267-.3335.3993-.667.7415-.9449 1.1408-.2779.4563-.6114.8556-.8338 1.3119-.2779.3993-.5558.8555-.7781 1.3118-.2225.5134-.4447.9697-.6115 1.4831-.1667.4563-.3335.9696-.5002 1.483-.1111.4563-.2224.9126-.2779 1.3689 0 .0572-.0557.114-.0557.1711-.1111.5134-.1111 1.1979-.1667 1.5401-.0557.3993-.1111.7415-.1111 1.1408 0 .2283 0 .5133.0557.7415.0556.3993.111.7415.2224 1.0838.1111.3422.2224.6844.389 1.0267v.0571c.1668.3422.3891.6844.6115 1.0267.2224.3422.4446.6844.7225 1.0267.278.2852.6115.6274.945.9126.3334.3422.667.6274 1.056.9126 1.334 1.1978 1.6675 1.5971 3.3906 2.5093.2779.172.5558.286.8893.457.0557 0 .1111.057.1668.057 0 .114 0 .171.0556.285.0557.456.1668.913.2779 1.369.1111.513.278.97.4447 1.369.1668.342.2779.684.4447 1.027.0557.114.1111.228.1667.285.2225.456.4447.855.667 1.255.2779.399.5558.798.8338 1.198.2779.342.6114.741.9449 1.083.3335.343.667.628 1.056.97 0 0 .0557.057.1111.057.3335.285.667.571 1.0005.799.3891.285.7782.513 1.2228.741.3891.228.8338.456 1.2784.628.3335.171.7226.285 1.1117.399.0557.057.1111.057.2224.114.2224.057.5002.114.7226.171-.1668 3.08-.2224 5.989.2224 7.016.5002 1.141 2.9459-2.339 5.3915-6.332-.3335 3.936-.5558 8.556 0 9.925.6114 1.426 3.9464-3.023 6.8367-7.928 39.4082-9.355 75.3698 18.595 79.1498 58.066-.723-6.161-8.115-9.583-11.506-8.727-1.667 4.22-4.502 9.639-9.06 13.004.39-3.764.223-7.643-.555-11.407-1.223 5.247-3.613 10.153-6.893 14.373-5.28.4-10.5604-2.224-13.3395-6.16-.2225-.171-.2779-.513-.4447-.741-.1667-.4-.3335-.799-.4447-1.198-.1667-.399-.2779-.799-.3335-1.198-.0556-.399-.0556-.798-.0556-1.255v-.855c.0556-.4.1667-.799.2779-1.198.111-.399.2224-.799.3891-1.198.2224-.399.389-.798.667-1.198.9449-2.738.9449-4.962-.7782-6.274-.3335-.228-.667-.399-1.0561-.57-.2224-.058-.5002-.172-.7226-.229-.1667-.057-.2779-.114-.4446-.171-.3891-.114-.7782-.228-1.1673-.285-.389-.114-.7781-.171-1.1672-.171-.3891-.057-.8337-.114-1.2228-.114-.2779 0-.5559.057-.8338.057-.4446 0-.8337.057-1.2228.171-.3891.057-.7781.114-1.1672.228s-.7782.229-1.1673.4c-.389.171-.7225.342-1.1116.513-.3335.171-.667.399-1.0561.57-12.9508 8.67-5.2248 28.976 3.6129 34.851-3.335.628-6.7255 1.369-7.6704 2.111-.0557.057-.1111.114-.1111.114 2.3901 1.483 4.8913 2.738 7.5037 3.821 3.5573 1.198 7.3369 2.282 9.0044 2.738v.057c4.6133.97 9.2823 1.312 14.0071 1.027 24.623-1.768 44.799-20.99 48.468-46.316.111.514.222.97.333 1.483.167 1.027.389 2.111.501 3.194v.058c.111.513.166 1.026.222 1.483v.228c.056.513.111 1.027.111 1.483.056.627.111 1.255.111 1.882v.913c0 .285.056.627.056.912 0 .343-.056.685-.056 1.027v.799c0 .399-.055.741-.055 1.141 0 .228 0 .456-.056.741 0 .399-.056.799-.056 1.255-.056.171-.056.342-.056.513-.055.457-.111.856-.166 1.312 0 .171 0 .342-.056.514-.056.57-.167 1.083-.222 1.654v.114c-.111.513-.223 1.084-.334 1.597v.171c-.111.513-.222 1.027-.333 1.54 0 .057-.056.171-.056.228-.111.514-.222 1.027-.389 1.541v.171c-.167.57-.334 1.083-.445 1.597-.055.057-.055.114-.055.114-.167.57-.334 1.14-.501 1.711-.222.57-.389 1.084-.611 1.654-.222.57-.389 1.141-.611 1.654-.223.571-.445 1.084-.667 1.654h-.056c-.223.514-.445 1.084-.723 1.597-.056.171-.111.286-.167.4-.055.057-.055.114-.111.171-3.613 7.472-8.948 14.031-15.618 19.165-.445.285-.89.627-1.334.97-.111.113-.278.171-.389.285-.39.285-.779.57-1.223.855l.166.343h.056c.778-.114 1.556-.229 2.335-.343h.055c1.445-.228 2.891-.513 4.336-.798.389-.057.833-.171 1.223-.285.277-.058.5-.114.778-.172.389-.057.778-.171 1.167-.228.333-.114.667-.171 1-.285 5.559-1.369 10.95-3.251 16.119-5.476-8.837 12.378-20.676 22.36-34.516 28.919 6.392-.456 12.784-1.54 18.953-3.365 22.4-6.788 41.243-22.246 52.526-43.065-2.279 13.176-7.393 25.725-14.952 36.676 5.392-3.65 10.339-7.871 14.841-12.662 12.45-13.347 20.621-30.288 23.4-48.483 1.89 9.012 2.446 18.309 1.612 27.492 40.131-57.438 3.335-116.9867-12.061-132.6724-.056-.114-.111-.1711-.111-.2852-.056.0571-.056.0571-.056.114 0-.0571 0-.0571-.056-.114 0 .6845-.056 1.3689-.111 2.0534-.167 1.3119-.333 2.5667-.556 3.8216-.278 1.2549-.611 2.5097-.945 3.7646-.389 1.1978-.833 2.4526-1.334 3.6505-.5 1.1407-1.056 2.3386-1.667 3.4794-.612 1.0837-1.279 2.2245-2.001 3.2512-.723 1.0837-1.501 2.1104-2.279 3.0801-.834 1.0267-1.723 1.9393-2.612 2.8519-.556.5134-1.057.9697-1.612 1.426-.445.3993-.834.7415-1.279 1.1408-1 .7985-2.001 1.54-3.112 2.2245-1.056.6845-2.168 1.3689-3.28 1.9393-1.167.5704-2.334 1.0838-3.501 1.5971-1.168.4563-2.391.8556-3.613 1.1979-1.223.3422-2.502.6274-3.724.8555-1.279.2283-2.557.3423-3.78.4564-.889.0571-1.779.114-2.668.114-1.278 0-2.557-.114-3.78-.2283-1.278-.114-2.556-.2852-3.779-.5704-1.279-.2283-2.501-.5704-3.724-.9697h-.056c1.223-.1139 2.446-.2282 3.669-.4563 1.278-.2282 2.501-.5133 3.724-.8556 1.222-.3422 2.445-.7415 3.612-1.1978 1.223-.4563 2.39-1.0267 3.502-1.5971 1.167-.5704 2.223-1.1978 3.335-1.8823 1.056-.7415 2.112-1.483 3.113-2.2815 1-.7986 1.945-1.6541 2.834-2.5668.945-.8556 1.779-1.8252 2.613-2.7949.834-1.0267 1.612-2.0534 2.334-3.0801.111-.1711.223-.3993.334-.5704.556-.9126 1.111-1.8252 1.612-2.7379.611-1.1408 1.167-2.2815 1.667-3.4793.5-1.1979.945-2.3957 1.334-3.6505.389-1.1979.667-2.4527.945-3.7076.223-1.3119.445-2.5667.556-3.8216.111-1.3119.222-2.6238.222-3.8786 0-.9127-.055-1.8253-.111-2.7379-.111-1.3119-.278-2.5668-.444-3.8216-.223-1.3119-.501-2.5668-.834-3.8216-.389-1.1978-.778-2.4527-1.223-3.6505-.445-1.1978-1-2.3957-1.556-3.5365-.612-1.1407-1.223-2.2815-1.89-3.3652-.723-1.0838-1.445-2.1105-2.223-3.1372-.834-.9697-1.668-1.9393-2.557-2.909-.445-.4563-.945-.9696-1.445-1.4259-2.502-1.9964-5.114-3.8787-7.726-5.5899-.389-.2282-.723-.3992-1.112-.5704-1.834-1.1978-3.557-1.8252-5.28-2.3956v-.0004Z"/></svg>