<svg xmlns="http://www.w3.org/2000/svg" width="256" height="256" fill="none"><rect width="256" height="256" fill="#F4F2ED" rx="60"/><path fill="#000" d="M121.451 28.0537c-.43.0391-1.799.176-3.031.2737-28.4063 2.5611-55.0143 17.8886-71.8667 41.4468-9.3842 13.0987-15.3861 27.957-17.654 43.6948-.8015 5.494-.8993 7.117-.8993 14.565 0 7.449.0978 9.072.8993 14.565 5.435 37.556 32.1603 69.111 68.4067 80.802 6.491 2.092 13.333 3.519 21.114 4.379 3.031.332 16.129.332 19.16 0 13.431-1.486 24.809-4.809 36.031-10.538 1.72-.879 2.053-1.114 1.818-1.309-.156-.118-7.488-9.952-16.285-21.838l-15.992-21.603-20.04-29.658c-11.026-16.305-20.097-29.639-20.176-29.639-.078-.019-.156 13.158-.195 29.248-.059 28.172-.078 29.306-.43 29.97-.508.958-.899 1.349-1.721 1.78-.6252.312-1.1726.371-4.1247.371h-3.3822l-.8993-.567c-.5865-.371-1.0166-.86-1.3099-1.427l-.4106-.88.0391-39.198.0587-39.2183.6061-.7625c.3128-.4105.9775-.9384 1.4467-1.1926.8015-.391 1.1144-.4301 4.4966-.4301 3.9885 0 4.6525.1564 5.6895 1.2904.293.3128 11.143 16.6571 24.125 36.3441 12.981 19.687 30.733 46.569 39.452 59.765l15.836 23.989.802-.528c7.096-4.614 14.604-11.183 20.547-18.026 12.649-14.526 20.802-32.238 23.539-51.124.801-5.493.899-7.116.899-14.565 0-7.448-.098-9.071-.899-14.565-5.435-37.556-32.161-69.1103-68.407-80.8014-6.393-2.0723-13.196-3.4995-20.821-4.3597-1.877-.1955-14.8-.4106-16.422-.2542Zm40.938 60.4888c.938.4692 1.701 1.3685 1.975 2.3069.156.5083.195 11.3786.156 35.8746l-.059 35.152-6.197-9.502-6.217-9.501v-25.552c0-16.52.078-25.8069.195-26.2565.313-1.0948.997-1.955 1.936-2.4634.801-.4105 1.095-.4496 4.164-.4496 2.894 0 3.402.0391 4.047.391Z"/></svg>