<svg xmlns="http://www.w3.org/2000/svg" width="256" height="256" fill="none" viewBox="0 0 256 256"><rect width="256" height="256" fill="#F4F2ED" rx="60"/><path fill="#81CD39" d="M119.878 31.1164c4.919-2.8156 11.325-2.8281 16.239 0 24.722 13.9691 49.452 27.9168 74.17 41.8944 4.65 2.6188 7.759 7.793 7.712 13.15v84.0452c.035 5.579-3.382 10.877-8.287 13.436-24.641 13.893-49.27 27.802-73.907 41.695-5.019 2.87-11.554 2.649-16.418-.457-7.387-4.282-14.787-8.544-22.1749-12.822-1.5099-.9-3.2117-1.616-4.2776-3.08.9421-1.27 2.6273-1.428 3.9964-1.983 3.0831-.981 5.9161-2.555 8.7481-4.082.717-.49 1.591-.302 2.278.136 6.317 3.622 12.579 7.35 18.917 10.937 1.352.781 2.721-.256 3.877-.9 24.18-13.667 48.39-27.281 72.567-40.952.896-.431 1.391-1.382 1.318-2.363.017-27.725.004-55.454.009-83.1792.102-1.1133-.542-2.1368-1.549-2.5928-24.555-13.8288-49.099-27.6785-73.65-41.5108-.871-.5989-2.02-.6004-2.892-.0045-24.552 13.8368-49.0902 27.6995-73.6416 41.5273-1.0032.4565-1.6764 1.4635-1.557 2.5808.0042 27.7252 0 55.4542 0 83.1832-.0872.981.4456 1.912 1.3352 2.334 6.5516 3.715 13.1118 7.404 19.6676 11.107 3.6934 1.987 8.2281 3.169 12.2973 1.646 3.5908-1.288 6.1078-4.953 6.0393-8.765.034-27.563-.017-55.13.0255-82.6892-.0894-1.2237 1.0709-2.2347 2.2607-2.1193 3.1482-.0215 6.3-.0424 9.448.0085 1.314-.03 2.218 1.2877 2.056 2.5204-.013 27.7376.034 55.4756-.021 83.2126.008 7.393-3.029 15.437-9.8667 19.054-8.4236 4.363-18.8354 3.438-27.1574-.746-7.2044-3.596-14.0796-7.84-21.1561-11.692-4.9177-2.545-8.3178-7.864-8.2832-13.439V86.1608c-.0516-5.4679 3.1819-10.736 7.9758-13.3163 24.6369-13.9037 49.2697-27.8184 73.9016-41.7281Z"/><path fill="#81CD39" d="M141.372 89.3351c10.745-.6918 22.248-.4096 31.917 4.8834 7.487 4.0569 11.637 12.5705 11.769 20.8875-.209 1.121-1.382 1.74-2.453 1.663-3.117-.004-6.236.043-9.353-.021-1.323.051-2.091-1.168-2.257-2.337-.896-3.98-3.067-7.921-6.812-9.841-5.75-2.878-12.416-2.733-18.687-2.673-4.576.242-9.498.639-13.376 3.33-2.977 2.039-3.881 6.155-2.819 9.47 1.002 2.38 3.749 3.148 5.997 3.856 12.95 3.387 26.672 3.049 39.373 7.506 5.26 1.817 10.404 5.35 12.204 10.856 2.355 7.38 1.323 16.2-3.928 22.124-4.258 4.875-10.459 7.529-16.644 8.97-8.228 1.835-16.767 1.882-25.123 1.067-7.857-.896-16.034-2.96-22.099-8.313-5.187-4.504-7.72-11.522-7.469-18.294.06-1.144 1.199-1.942 2.295-1.848 3.139-.025 6.279-.034 9.418.005 1.254-.09 2.184.994 2.248 2.176.579 3.791 2.004 7.771 5.31 10.018 6.381 4.117 14.388 3.835 21.694 3.95 6.052-.268 12.847-.349 17.787-4.35 2.606-2.282 3.378-6.1 2.674-9.384-.763-2.773-3.664-4.065-6.155-4.91-12.783-4.043-26.659-2.576-39.318-7.149-5.14-1.816-10.11-5.25-12.084-10.53-2.755-7.473-1.493-16.717 4.308-22.4409 5.656-5.6941 13.82-7.8869 21.583-8.6715v.0005"/></svg>