<svg xmlns="http://www.w3.org/2000/svg" width="256" height="256" fill="none"><rect width="256" height="256" fill="#F4F2ED" rx="60"/><path fill="#00DC82" d="M138.787 189.333h68.772c2.184.001 4.33-.569 6.222-1.652 1.892-1.082 3.462-2.639 4.554-4.515 1.092-1.875 1.666-4.002 1.665-6.167-.001-2.165-.577-4.291-1.671-6.165l-46.185-79.2857c-1.092-1.8747-2.662-3.4316-4.553-4.514-1.892-1.0823-4.037-1.6523-6.221-1.6523s-4.329.57-6.221 1.6523c-1.891 1.0824-3.461 2.6393-4.553 4.514l-11.809 20.2867-23.09-39.6698c-1.092-1.8744-2.663-3.4311-4.555-4.5134C109.25 66.5698 107.104 66 104.92 66s-4.33.5698-6.2218 1.6518c-1.892 1.0823-3.463 2.639-4.5555 4.5134L36.6704 170.834c-1.0933 1.874-1.6694 4-1.6704 6.165-.0009 2.165.5733 4.292 1.665 6.167 1.0917 1.876 2.6624 3.433 4.5541 4.515 1.8916 1.083 4.0376 1.653 6.2219 1.652h43.1696c17.1044 0 29.7184-7.446 38.3974-21.973l21.072-36.169 11.287-19.356 33.873 58.142h-45.16l-11.293 19.356Zm-48.8802-19.376-30.1269-.007L104.94 92.4316l22.533 38.7594-15.087 25.906c-5.764 9.426-12.312 12.86-22.4792 12.86Z"/></svg>