<?xml version="1.0" encoding="UTF-8" standalone="no"?>
<svg
   viewBox="0 0 256 256"
   version="1.1"
   id="svg5"
   sodipodi:docname="Pest.svg"
   width="256"
   height="256"
   inkscape:version="1.4.2 (f4327f4, 2025-05-13)"
   xmlns:inkscape="http://www.inkscape.org/namespaces/inkscape"
   xmlns:sodipodi="http://sodipodi.sourceforge.net/DTD/sodipodi-0.dtd"
   xmlns="http://www.w3.org/2000/svg"
   xmlns:svg="http://www.w3.org/2000/svg"
   xmlns:rdf="http://www.w3.org/1999/02/22-rdf-syntax-ns#"
   xmlns:cc="http://creativecommons.org/ns#"
   xmlns:dc="http://purl.org/dc/elements/1.1/">
  <defs
     id="defs5" />
  <sodipodi:namedview
     id="namedview5"
     pagecolor="#ffffff"
     bordercolor="#000000"
     borderopacity="0.25"
     inkscape:showpageshadow="2"
     inkscape:pageopacity="0.0"
     inkscape:pagecheckerboard="0"
     inkscape:deskcolor="#d1d1d1"
     inkscape:zoom="0.98666667"
     inkscape:cx="145.94595"
     inkscape:cy="94.763513"
     inkscape:window-width="1920"
     inkscape:window-height="1057"
     inkscape:window-x="-8"
     inkscape:window-y="-8"
     inkscape:window-maximized="1"
     inkscape:current-layer="svg5" />
  <title
     id="title1">pestphp logo</title>
  <linearGradient
     id="a"
     gradientUnits="userSpaceOnUse"
     x1="-966.05481"
     y1="129.9631"
     x2="-965.05481"
     y2="129.9631"
     gradientTransform="matrix(185.45778,11.263809,49.693252,-42.037102,172718.51,16465.826)">
    <stop
       offset="0"
       stop-color="#64e6ae"
       id="stop1" />
    <stop
       offset="0.1"
       stop-color="#64e6ae"
       id="stop2" />
    <stop
       offset="0.3"
       stop-color="#4ed4ff"
       id="stop3" />
    <stop
       offset="0.7"
       stop-color="#f471b5"
       id="stop4" />
    <stop
       offset="1"
       stop-color="#f471b5"
       id="stop5" />
  </linearGradient>
  <rect
     width="256"
     height="256"
     rx="60"
     fill="#f4f2ed"
     id="rect1"
     x="0"
     y="0" />
  <metadata
     id="metadata5">
    <rdf:RDF>
      <cc:Work
         rdf:about="">
        <dc:title>pestphp logo</dc:title>
      </cc:Work>
    </rdf:RDF>
  </metadata>
  <path
     fill="url(#a)"
     d="m 80.490667,118.592 c 1.19468,-6.80534 -3.34933,-12.352 -10.13332,-12.352 h -30.72001 l -2.176,12.352 h 30.719999 l -0.72533,4.11733 H 36.736004 L 32.000005,149.76 h 12.287999 l 2.581333,-14.72001 h 18.432 c 6.784009,0 13.26933,-5.54665 14.46401,-12.35199 z M 116.608,122.83733 H 83.946667 l -1.92,10.32534 H 114.66667 Z M 129.74934,106.24 H 86.741335 l -2.175989,12.37333 H 127.59468 Z M 79.103996,149.76 H 122.13333 L 124.288,137.38667 H 81.279997 Z m 67.029334,-43.52 c -6.69866,0 -13.16265,5.65333 -14.46399,12.37333 l -0.36269,2.06934 h 0.0215 c -0.83215,6.57066 3.56252,12.15999 10.15451,12.15999 h 18.432 l -0.81066,4.54401 h -30.72 L 126.20799,149.76 h 30.72 c 6.78401,0 13.26935,-5.54667 14.46401,-12.37333 l 0.78933,-4.54401 c 1.19466,-6.82667 -3.34934,-12.37332 -10.13334,-12.37332 h -18.432 l 0.32001,-1.85601 h 40.98132 L 179.456,149.76 h 12.33066 l 5.46133,-31.14667 h 12.288 c 6.78401,0 13.26935,-5.54666 14.46401,-12.37333 z"
     id="path5"
     style="fill:url(#a);stroke-width:0.213333" />
</svg>
