<svg xmlns="http://www.w3.org/2000/svg" width="256" height="256" fill="none" viewBox="0 0 256 256"><rect width="256" height="256" fill="#F4F2ED" rx="60"/><g clip-path="url(#a)"><path fill="#000" d="M171.474 169.034c1.146-9.541.802-10.933 7.903-9.393l1.807.161c5.464.246 12.607-.879 16.875-2.826 9.036-4.191 14.393-11.194 5.485-9.352-20.321 4.191-21.797-2.693-21.797-2.693 21.466-31.851 30.445-72.281 22.69-82.174-21.122-27-57.692-14.2312-58.303-13.8937l-.197.0351c-4.008-.8437-8.438-1.3359-13.571-1.4062-9.196-.1406-16.171 2.4117-21.473 6.4266 0 0-65.2289-26.8735-62.1985 33.7992.6469 12.909 18.4922 97.734 39.7969 72.07 7.7977-9.379 15.3216-17.304 15.3216-17.304 3.726 2.482 8.205 3.748 12.895 3.291l.365-.309c-.108 1.215-.058 2.439.148 3.642-5.484 6.131-3.867 7.207-14.836 9.464-11.0951 2.285-4.5701 6.356-.323 7.425 5.161 1.294 17.1 3.122 25.172-8.17l-.324 1.286c2.152 1.723 2.004 12.375 2.32 19.983.317 7.608.816 14.717 2.37 18.9 1.554 4.184 3.375 14.977 17.789 11.953 12.045-2.58 21.256-6.3 22.099-40.851"/><path stroke="#000" stroke-width="15.11" d="M171.474 169.034c1.146-9.541.802-10.933 7.903-9.393l1.807.161c5.464.246 12.607-.879 16.875-2.826 9.036-4.191 14.393-11.194 5.485-9.352-20.321 4.191-21.797-2.693-21.797-2.693 21.466-31.851 30.445-72.281 22.69-82.174-21.122-27-57.692-14.2312-58.303-13.8937l-.197.0351c-4.008-.8437-8.438-1.3359-13.571-1.4062-9.196-.1406-16.171 2.4117-21.473 6.4266 0 0-65.2289-26.8735-62.1985 33.7992.6469 12.909 18.4922 97.734 39.7969 72.07 7.7977-9.379 15.3216-17.304 15.3216-17.304 3.726 2.482 8.205 3.748 12.895 3.291l.365-.309c-.108 1.215-.058 2.439.148 3.642-5.484 6.131-3.867 7.207-14.836 9.464-11.0951 2.285-4.5701 6.356-.323 7.425 5.161 1.294 17.1 3.122 25.172-8.17l-.324 1.286c2.152 1.723 2.004 12.375 2.32 19.983.317 7.608.816 14.717 2.37 18.9 1.554 4.184 3.375 14.977 17.789 11.953 12.045-2.58 21.256-6.3 22.099-40.851"/><path fill="#336791" d="M203.48 147.688c-20.32 4.19-21.796-2.693-21.796-2.693 21.466-31.852 30.445-72.2816 22.696-82.1746-21.121-27-57.691-14.2242-58.303-13.8938l-.197.0352c-4.466-.8962-9.007-1.3694-13.563-1.4133-9.197-.1406-16.172 2.4117-21.473 6.4266 0 0-65.2362-26.8735-62.1987 33.7992.6469 12.9097 18.4922 97.7347 39.7969 72.0707 7.8469-9.436 15.3708-17.361 15.3708-17.361 3.726 2.482 8.205 3.748 12.895 3.291l.365-.309c-.107 1.215-.057 2.439.148 3.642-5.484 6.131-3.867 7.207-14.836 9.464-11.0951 2.285-4.5701 6.356-.323 7.425 5.161 1.294 17.1 3.122 25.172-8.17l-.324 1.286c2.152 1.723 3.656 11.201 3.403 19.793-.253 8.593-.422 14.485 1.266 19.097 1.687 4.613 3.375 14.977 17.789 11.953 12.045-2.58 18.281-9.281 19.16-20.432.619-7.932 2.011-6.765 2.11-13.852l1.125-3.361c1.286-10.758.21-14.224 7.628-12.607l1.807.162c5.464.246 12.615-.879 16.805-2.827 9.035-4.19 14.393-11.194 5.485-9.351h-.008Z"/><path stroke="#fff" stroke-linecap="round" stroke-linejoin="round" stroke-width="5.034" d="M146.07 48.5961c-2.25.7032 36.31-14.0976 58.233 13.9079 7.735 9.8929-1.23 50.323-22.697 82.174m-53.508 9.106c-.562 20.011.141 40.162 2.096 45 1.954 4.837 6.152 14.414 20.573 11.334 12.045-2.58 16.432-7.58 18.331-18.612l4.45-35.275-45.45-2.447ZM110.816 53.4688s-65.2785-26.6906-62.241 33.982c.6469 12.9092 18.4922 97.7342 39.7969 72.0702 7.7765-9.373 14.8081-16.706 14.8081-16.706l7.636-89.3462Z"/><path stroke="#fff" stroke-linecap="round" stroke-linejoin="bevel" stroke-width="5.034" d="M181.613 144.664s1.407 6.891 21.797 2.686c8.909-1.842 3.544 5.161-5.484 9.352-7.411 3.445-24.033 4.324-24.307-.422-.703-12.27 8.747-8.543 8.065-11.616-.619-2.77-4.852-5.484-7.636-12.262-2.44-5.907-33.469-51.2582 8.606-44.5293 1.547-.3164-10.969-40.0781-50.344-40.6546-39.3748-.5766-38.1303 48.4101-38.1303 48.4101"/><path stroke="#fff" stroke-linejoin="round" stroke-width="5.034" d="M117.08 148.869c-5.484 6.131-3.867 7.207-14.835 9.464-11.0958 2.285-4.5708 6.356-.324 7.425 5.161 1.294 17.1 3.122 25.172-8.178 2.461-3.445-.014-8.929-3.389-10.321-1.631-.675-3.811-1.519-6.609 1.617l-.015-.007Z"/><path stroke="#fff" stroke-linecap="round" stroke-linejoin="round" stroke-width="5.034" d="M116.722 148.763c-.563-3.607 1.181-7.889 3.044-12.909 2.799-7.523 9.254-15.047 4.093-38.9321-3.847-17.789-29.6723-3.7054-29.6723-1.2937 0 2.4117 1.1672 12.2348-.4219 23.6598-2.0882 14.921 9.4922 27.535 22.8232 26.248"/><path fill="#fff" stroke="#fff" stroke-width="1.68" d="M110.577 95.2695c-.12.8227 1.511 3.0235 3.628 3.3188 2.116.2953 3.923-1.4203 4.043-2.25.119-.8297-1.512-1.7297-3.628-2.025-2.117-.2953-3.938.1406-4.043.9562Z"/><path fill="#fff" stroke="#fff" stroke-width=".837" d="M175.011 93.5891c.112.8227-1.512 3.0234-3.628 3.3188-2.117.2953-3.938-1.4204-4.043-2.25-.106-.8297 1.512-1.7297 3.628-2.025 2.116-.2954 3.937.1406 4.043.9562Z"/><path stroke="#fff" stroke-linecap="round" stroke-linejoin="round" stroke-width="5.034" d="M182.577 87.8867c.351 6.4688-1.393 10.8633-1.618 17.7473-.323 9.998 4.768 21.445-2.904 32.906"/></g><defs><clipPath id="a"><path fill="#fff" d="M38 38h180v180H38z"/></clipPath></defs></svg>