<svg xmlns="http://www.w3.org/2000/svg" width="256" height="256" fill="none"><rect width="256" height="256" fill="#F4F2ED" rx="60"/><path fill="#00D8FF" d="M128.001 146.951c10.304 0 18.656-8.353 18.656-18.656 0-10.303-8.352-18.656-18.656-18.656-10.303 0-18.656 8.353-18.656 18.656 0 10.303 8.353 18.656 18.656 18.656Z"/><path stroke="#00D8FF" stroke-width="8.911" d="M128.002 90.3633c25.048 0 48.317 3.5942 65.862 9.6343C215.003 107.275 228 118.306 228 128.295c0 10.409-13.774 22.128-36.475 29.649-17.162 5.686-39.746 8.654-63.523 8.654-24.378 0-47.4631-2.786-64.8186-8.717C41.2255 150.376 28 138.506 28 128.295c0-9.908 12.4096-20.854 33.2515-28.12 17.6102-6.1397 41.4535-9.8117 66.7465-9.8117h.004Z" clip-rule="evenodd"/><path stroke="#00D8FF" stroke-width="8.911" d="M94.9811 109.438C107.495 87.7402 122.232 69.3783 136.23 57.1971c16.864-14.6765 32.914-20.4243 41.566-15.4348 9.017 5.2 12.288 22.9873 7.463 46.4089-3.645 17.7078-12.359 38.7538-24.238 59.3518-12.179 21.118-26.124 39.724-39.931 51.792-17.471 15.272-34.3616 20.799-43.2067 15.698-8.583-4.946-11.8652-21.167-7.7477-42.852 3.4789-18.323 12.2095-40.812 24.8414-62.723h.0041Z" clip-rule="evenodd"/><path stroke="#00D8FF" stroke-width="8.911" d="M95.0123 147.578c-12.549-21.674-21.0929-43.616-24.6592-61.8263-4.2929-21.9408-1.2577-38.7162 7.387-43.7202 9.0084-5.2152 26.0519.8345 43.9339 16.7122 13.52 12.0042 27.403 30.0615 39.316 50.6393 12.214 21.098 21.368 42.473 24.929 60.461 4.506 22.764.859 40.157-7.978 45.272-8.574 4.964-24.265-.291-40.996-14.689-14.136-12.164-29.26-30.959-41.9327-52.849Z" clip-rule="evenodd"/></svg>