<svg xmlns="http://www.w3.org/2000/svg" xmlns:xlink="http://www.w3.org/1999/xlink" width="256" height="256" fill="none" viewBox="0 0 256 256"><rect width="256" height="256" fill="#f4f2ed" rx="60"/><defs><linearGradient xlink:href="#a" id="b" x1="-15.614694" x2="-6.7410073" y1="-9.1082983" y2="-9.1082983" gradientTransform="matrix(0 11.486337 -11.486337 0 -30.839638 202.18698)" gradientUnits="userSpaceOnUse" spreadMethod="pad"/><linearGradient id="a" x1="0" x2="1" y1="0" y2="0" gradientTransform="matrix(-.00000402 -91.8907 -91.8907 .00000402 85.8809 161.434)" gradientUnits="userSpaceOnUse" spreadMethod="pad"><stop offset="0" style="stop-color:#97d9f6;stop-opacity:1"/><stop offset=".92024499" style="stop-color:#0f80cc;stop-opacity:1"/><stop offset="1" style="stop-color:#0f80cc;stop-opacity:1"/></linearGradient></defs><path d="M121.6315 17.03623h-99.506c-6.669 0-12.1255 5.4575-12.1255 12.12625v109.7365c0 6.66837 5.4565 12.125 12.1255 12.125h65.53725c-.743866-32.60921 10.391749-95.893578 33.96875-133.98775Z" style="fill:#0f80cc;fill-opacity:1;fill-rule:nonzero;stroke:none" transform="matrix(1.0578842 0 0 1.0578842 42.42115812 33.54020657)"/><path d="M118.0165 20.57373h-95.891c-4.735375 0-8.588875 3.8525-8.588875 8.58875v101.73013c21.71725-8.335 54.31221-15.5269 76.849585-15.20027 4.52893-23.680901 17.83941-70.090424 27.63029-95.11861z" style="fill:url(#b);fill-opacity:1;fill-rule:nonzero;stroke:none" transform="matrix(1.0578842 0 0 1.0578842 42.42115812 33.54020657)"/><path d="M144.8415 13.44498c-6.815-6.0775-15.06625-3.63625-23.21 3.59125-1.20875 1.07375-2.415 2.265-3.615 3.5375-13.93125 14.77875-26.8625 42.15375-30.88 63.06 1.565 3.17375 2.7875 7.22375 3.5925 10.3175.20625.79375.3925 1.53875.54125 2.1725.35375 1.499875.54375 2.4725.54375 2.4725s-.125-.472625-.6375-1.95875c-.0975-.285-.20625-.59625-.335-.9625-.055-.15125-.13125-.335-.215-.53125-.90875-2.1125-3.4225-6.57125-4.52875-8.5125-.94625 2.79125-1.7825 5.4025-2.4825 7.765 3.19375 5.8435 5.14 15.85775 5.14 15.85775s-.16875-.649-.97125-2.91412c-.7125-2.00338-4.26125-8.22113-5.101875-9.674755-1.438 5.308505-2.009375 8.892505-1.494125 9.765125 1.000375 1.69088 1.953125 4.60838 2.78975 7.83488 1.89 7.26862 3.20375 16.11725 3.20375 16.11725s.0425.58637.11375 1.48875c-.2625 6.104-.105 12.43262.3675 18.15287.62625 7.57225 1.805 14.07713 3.3075 17.5585l1.02-.55612c-2.20625-6.85888-3.1025-15.84763-2.71-26.21388.59375-15.84512 4.24-34.95362 10.9775-54.87 11.3825-30.065 27.175-54.1875 41.62875-65.7075-13.17375 11.8975-31.00375 50.40875-36.34125 64.67-5.97625 15.97-10.21125 30.95638-12.76375 45.31475 4.40375-13.46087 18.6425-19.247 18.6425-19.247s6.98375-8.61287 15.145-20.91775c-4.88875 1.115-12.91625 3.02375-15.605 4.15375-3.96625 1.66375-5.035 2.23125-5.035 2.23125s12.8475-7.82375 23.87-11.36625c15.15875-23.875 31.67375-57.7925 15.0425-72.62875" style="fill:#003b57;fill-opacity:1;fill-rule:nonzero;stroke:none" transform="matrix(1.0578842 0 0 1.0578842 42.42115812 33.54020657)"/></svg>