<svg xmlns="http://www.w3.org/2000/svg" width="256" height="256" fill="none"><rect width="256" height="256" fill="#F4F2ED" rx="60"/><path fill="url(#a)" fill-rule="evenodd" d="M83 110c5.9991-23.9991 21.001-36 45-36 36 0 40.5 27 58.5 31.5 12.001 3.001 22.5-1.499 31.5-13.5-5.999 23.999-21.001 36-45 36-36 0-40.5-27-58.5-31.5C102.499 93.4991 92 97.9991 83 110Zm-45 54c5.9991-23.999 21.0009-36 45-36 36 0 40.5 27 58.5 31.5 12.001 3.001 22.5-1.499 31.5-13.5-5.999 23.999-21.001 36-45 36-36 0-40.5-27-58.5-31.5C57.4991 147.499 47 151.999 38 164Z" clip-rule="evenodd"/><defs><linearGradient id="a" x1="86.5" x2="163.5" y1="74" y2="185.5" gradientUnits="userSpaceOnUse"><stop stop-color="#32B1C1"/><stop offset="1" stop-color="#14C6B7"/></linearGradient></defs></svg>