<svg xmlns="http://www.w3.org/2000/svg" width="256" height="256" fill="none"><rect width="256" height="256" fill="#F4F2ED" rx="60"/><path fill="#FCC72B" d="m178.09 92.319-47.813 69.131c-.507.733-1.24 1.282-2.088 1.564-.848.282-1.765.279-2.612-.004-.846-.284-1.576-.836-2.078-1.57-.502-.736-.75-1.614-.706-2.502l1.914-38.168-30.8923-6.551c-.6602-.14-1.2753-.44-1.7909-.874-.5156-.433-.9158-.986-1.1651-1.61-.2492-.625-.3399-1.301-.2639-1.969.0759-.668.3161-1.307.6992-1.861l47.814-69.1313c.507-.7334 1.24-1.2823 2.088-1.5637.848-.2814 1.765-.28 2.611.0043.847.2842 1.576.8357 2.079 1.5708.502.735.75 1.6133.705 2.5019l-1.914 38.168 30.892 6.5509c.661.14 1.276.4399 1.792.8731.516.4333.915.9866 1.164 1.611.25.6243.34 1.3004.265 1.9683-.076.668-.317 1.3068-.7 1.8607Z"/><path fill="#729B1B" d="M128.019 219.451c-1.272.001-2.531-.248-3.706-.734-1.175-.487-2.242-1.202-3.14-2.101l-45.1779-45.175c-1.8073-1.817-2.8204-4.276-2.8171-6.839.0034-2.563 1.023-5.021 2.8353-6.833 1.8122-1.812 4.2693-2.832 6.8322-2.836 2.5631-.003 5.0229 1.009 6.8401 2.817l38.3334 38.329 83.51-83.506c1.821-1.791 4.275-2.79 6.828-2.78 2.555.01 5.002 1.03 6.806 2.835 1.806 1.806 2.826 4.253 2.837 6.807.009 2.553-.99 5.008-2.781 6.828l-90.356 90.353c-.897.901-1.964 1.614-3.139 2.101-1.174.486-2.434.735-3.705.734Z"/><path fill="#729B1B" fill-opacity=".5" d="M127.98 219.451c1.272.001 2.531-.248 3.706-.734 1.175-.487 2.242-1.202 3.14-2.101l45.178-45.175c1.808-1.817 2.821-4.276 2.817-6.839-.003-2.563-1.023-5.021-2.835-6.833-1.813-1.812-4.27-2.832-6.833-2.836-2.562-.003-5.022 1.009-6.84 2.817l-38.333 38.329-83.5095-83.506c-1.8206-1.791-4.2751-2.79-6.8289-2.78-2.5539.01-5.0003 1.03-6.8061 2.835-1.8059 1.806-2.825 4.253-2.8354 6.807-.0104 2.553.9888 5.008 2.7799 6.828l90.356 90.353c.898.901 1.965 1.614 3.139 2.101 1.175.486 2.434.735 3.705.734Z"/></svg>