<svg xmlns="http://www.w3.org/2000/svg" width="256" height="256" fill="none" viewBox="0 0 256 256"><rect width="256" height="256" fill="#F4F2ED" rx="60"/><path fill="url(#a)" d="M227.088 57.6016 133.256 225.389c-1.938 3.465-6.915 3.485-8.881.038L28.6823 57.6177c-2.1423-3.7567 1.0701-8.3072 5.3273-7.5462l93.9324 16.7898c.599.1071 1.213.1061 1.812-.0031l91.968-16.7627c4.243-.7733 7.47 3.7419 5.366 7.5061Z"/><path fill="url(#b)" d="m172.687 28.0492-69.438 13.6062c-1.142.2236-1.987 1.1908-2.055 2.3516l-4.2719 72.141c-.1005 1.699 1.46 3.018 3.1179 2.635l19.333-4.461c1.809-.417 3.443 1.176 3.072 2.995l-5.744 28.126c-.387 1.893 1.391 3.511 3.239 2.95l11.941-3.628c1.851-.562 3.63 1.061 3.238 2.956l-9.128 44.179c-.571 2.764 3.105 4.271 4.638 1.901l1.024-1.582 56.582-112.9198c.948-1.8907-.686-4.0466-2.763-3.6458l-19.899 3.8406c-1.87.3605-3.461-1.381-2.934-3.2106l12.989-45.0252c.528-1.8327-1.069-3.5757-2.941-3.209Z"/><defs><linearGradient id="a" x1="26.3459" x2="143.127" y1="44.075" y2="202.673" gradientUnits="userSpaceOnUse"><stop stop-color="#41D1FF"/><stop offset="1" stop-color="#BD34FE"/></linearGradient><linearGradient id="b" x1="122.551" x2="143.676" y1="31.7433" y2="176.66" gradientUnits="userSpaceOnUse"><stop stop-color="#FFEA83"/><stop offset=".0833333" stop-color="#FFDD35"/><stop offset="1" stop-color="#FFA800"/></linearGradient></defs></svg>