<svg xmlns="http://www.w3.org/2000/svg" width="256" height="256" fill="none" viewBox="0 0 256 256"><rect width="256" height="256" fill="#F4F2ED" rx="60"/><path fill="#2489CA" d="M33.7158 100.208s-4.7344-3.413.9469-7.9699L47.8994 80.402s3.7875-3.9848 7.7921-.5129L177.84 172.368v44.346s-.059 6.964-8.996 6.194l-135.1282-122.7Z"/><path fill="#1070B3" d="m65.1997 128.792-31.484 28.623s-3.2352 2.407 0 6.708l14.6176 13.295s3.4719 3.729 8.6008-.513l33.3778-25.309-25.1122-22.804Z"/><path fill="#0877B9" d="m120.474 129.029 57.741-44.0899-.375-44.1091s-2.466-9.6267-10.692-4.6161L90.312 106.145l30.162 22.884Z"/><path fill="#3C99D4" d="M168.844 222.968c3.354 3.432 7.418 2.308 7.418 2.308l44.997-22.173c5.76-3.926 4.951-8.798 4.951-8.798V61.8982c0-5.8194-5.958-7.8315-5.958-7.8315L181.253 35.267c-8.522-5.267-14.105.9469-14.105.9469s7.18-5.1684 10.692 4.6161v175.075c0 1.204-.257 2.387-.769 3.453-1.026 2.071-3.255 4.004-8.601 3.195l.374.415Z"/></svg>